<svg width="189" height="32" viewBox="0 0 189 32" fill="none" xmlns="http://www.w3.org/2000/svg">
<path d="M6.70253 23.1595V23.0689L15.6508 10.513V7.66814H2.30597V11.0043H10.7111V11.0949L1.94391 23.5733V26.4828H15.6767V23.1595H6.70253ZM26.9784 13.5517V19.8233C26.9784 21.0259 26.694 21.9569 26.1508 22.6035C25.5948 23.2629 24.9095 23.5862 24.1077 23.5862C23.2801 23.5862 22.6852 23.3535 22.3232 22.888C21.9612 22.4224 21.7931 21.5948 21.7931 20.431V13.5517H18.3275V21.3362C18.3275 22.306 18.431 23.1336 18.6637 23.832C18.8965 24.5302 19.2197 25.0863 19.6595 25.5001C20.0991 25.9139 20.5905 26.2241 21.1594 26.4181C21.7154 26.6121 22.362 26.7026 23.0861 26.7026C23.8232 26.7026 24.5215 26.5604 25.181 26.2501C25.8404 25.9397 26.4224 25.5001 26.9267 24.9052H26.9784V26.4828H30.4439V13.5517H26.9784ZM41.2543 13.3319C40.4783 13.3319 39.7672 13.5259 39.0947 13.8879C38.4224 14.2501 37.8404 14.7802 37.3491 15.4526H37.3102V13.5517H33.8447V26.4828H37.3102V20.4828C37.3102 19.5001 37.5948 18.6854 38.1767 18.0518C38.7586 17.4311 39.5732 17.1078 40.6077 17.1078C40.8663 17.1078 41.1767 17.1207 41.5258 17.1466V13.3449C41.4741 13.3449 41.3836 13.3319 41.2543 13.3319ZM45.6638 11.7285C46.2456 11.7285 46.7499 11.5216 47.1767 11.1078C47.5905 10.694 47.8103 10.2026 47.8103 9.60779C47.8103 9.03883 47.5905 8.53452 47.1767 8.12073C46.7499 7.70694 46.2456 7.50004 45.6638 7.50004C45.0689 7.50004 44.5517 7.70694 44.1379 8.12073C43.7241 8.53452 43.5171 9.03883 43.5171 9.60779C43.5171 9.99572 43.6077 10.3578 43.8017 10.6811C43.9827 11.0043 44.2413 11.2629 44.5775 11.444C44.9138 11.638 45.2758 11.7285 45.6638 11.7285ZM43.9309 26.4828H47.3965V13.5517H43.9309V26.4828ZM65.4612 26.4828H69.2111V7.66814H65.4612V26.4828ZM80.8103 13.3319C80.0086 13.3319 79.2457 13.5001 78.5215 13.8233C77.7974 14.1466 77.1767 14.6121 76.6594 15.2199H76.6206V13.5517H73.1551V26.4828H76.6206V19.9785C76.6206 18.8534 76.8792 17.9871 77.4094 17.3664C77.9396 16.7587 78.6508 16.4483 79.556 16.4483C80.3965 16.4483 81.0172 16.694 81.431 17.1724C81.8318 17.6638 82.0387 18.4914 82.0387 19.681V26.4957H85.5042V18.8147C85.5042 17.8449 85.3879 17.0044 85.168 16.2802C84.9353 15.569 84.612 15.0001 84.1853 14.5733C83.7586 14.1595 83.2672 13.8492 82.7112 13.6423C82.1551 13.4354 81.5215 13.3319 80.8103 13.3319ZM92.8491 26.7026C93.6378 26.7026 94.2845 26.6379 94.7887 26.4957C95.2801 26.3664 95.7844 26.1595 96.2759 25.8879L95.3836 23.1207C94.7887 23.4311 94.2456 23.5733 93.7543 23.5733C93.3405 23.5733 93.056 23.444 92.8749 23.1724C92.694 22.9138 92.6163 22.4871 92.6163 21.9182V16.4224H96.1335V13.5517H92.6163V8.94832L89.1508 9.32331V13.5517H87.6249V16.4224H89.1508V22.3966C89.1508 23.819 89.4741 24.8923 90.1335 25.6164C90.793 26.3406 91.6982 26.7026 92.8491 26.7026ZM110.112 19.9009C110.112 18.6465 109.84 17.5216 109.323 16.5259C108.793 15.5302 108.043 14.7544 107.086 14.1854C106.116 13.6164 105.004 13.3319 103.763 13.3319C102.858 13.3319 102.004 13.5001 101.215 13.8233C100.414 14.1595 99.7414 14.6121 99.1724 15.194C98.6034 15.7759 98.1638 16.4871 97.8404 17.3147C97.5042 18.1423 97.3491 19.0474 97.3491 20.0043C97.3491 21.3233 97.6335 22.5 98.2155 23.5216C98.7973 24.5561 99.5991 25.3449 100.608 25.8879C101.616 26.431 102.741 26.7026 104.009 26.7026C105.25 26.7026 106.336 26.4828 107.293 26.0432C108.237 25.6035 109 25.0087 109.595 24.2587L107.345 22.1638C106.53 23.1466 105.496 23.638 104.254 23.6251C103.427 23.6251 102.715 23.3923 102.134 22.9526C101.552 22.5129 101.164 21.9182 100.957 21.1423H110.022C110.073 20.9354 110.112 20.5216 110.112 19.9009ZM103.879 16.3837C104.603 16.3837 105.211 16.5906 105.69 16.9914C106.155 17.3923 106.491 17.9483 106.672 18.6465H100.97C101.164 17.9225 101.513 17.3535 102.03 16.9656C102.547 16.5776 103.155 16.3837 103.879 16.3837ZM120.288 13.3319C119.512 13.3319 118.802 13.5259 118.129 13.8879C117.457 14.2501 116.875 14.7802 116.383 15.4526H116.344V13.5517H112.88V26.4828H116.344V20.4828C116.344 19.5001 116.629 18.6854 117.211 18.0518C117.793 17.4311 118.608 17.1078 119.643 17.1078C119.901 17.1078 120.211 17.1207 120.561 17.1466V13.3449C120.509 13.3449 120.418 13.3319 120.288 13.3319ZM130.465 13.3319C129.664 13.3319 128.901 13.5001 128.177 13.8233C127.453 14.1466 126.832 14.6121 126.314 15.2199H126.276V13.5517H122.811V26.4828H126.276V19.9785C126.276 18.8534 126.535 17.9871 127.064 17.3664C127.595 16.7587 128.306 16.4483 129.211 16.4483C130.052 16.4483 130.673 16.694 131.087 17.1724C131.487 17.6638 131.693 18.4914 131.693 19.681V26.4957H135.159V18.8147C135.159 17.8449 135.044 17.0044 134.823 16.2802C134.59 15.569 134.267 15.0001 133.841 14.5733C133.414 14.1595 132.923 13.8492 132.367 13.6423C131.81 13.4354 131.177 13.3319 130.465 13.3319ZM142.66 26.7026C144.288 26.7026 145.53 26.3406 146.384 25.5905C147.237 24.8534 147.677 23.8836 147.677 22.6811C147.677 22.3707 147.65 22.0733 147.599 21.8147C147.431 20.9612 146.927 20.263 146.099 19.7457C145.608 19.4354 144.651 19.0216 143.229 18.4914C142.543 18.2328 142.052 18 141.741 17.7931C141.431 17.5862 141.289 17.3535 141.289 17.0949C141.289 16.7845 141.418 16.5518 141.676 16.3837C141.936 16.2155 142.219 16.1251 142.556 16.1251C143.047 16.1251 143.564 16.2415 144.107 16.4742C144.651 16.7069 145.156 17.0431 145.647 17.4958L147.327 14.9612C146.59 14.3923 145.841 13.9785 145.09 13.7199C144.328 13.4612 143.5 13.3319 142.594 13.3319C141.715 13.3319 140.914 13.5001 140.215 13.8104C139.517 14.1337 138.961 14.5863 138.547 15.1811C138.133 15.7759 137.94 16.4483 137.94 17.2113C137.94 17.6251 137.979 18 138.081 18.3363C138.173 18.6854 138.314 18.9957 138.495 19.2543C138.677 19.5259 138.884 19.7716 139.116 19.9785C139.349 20.1983 139.621 20.3923 139.944 20.5733C140.254 20.7544 140.564 20.8966 140.875 21.0259C141.185 21.1552 141.534 21.2846 141.922 21.4138C142.53 21.6208 142.983 21.7759 143.293 21.9052C143.603 22.0346 143.836 22.1768 144.017 22.332C144.186 22.4871 144.276 22.6552 144.276 22.8491C144.276 23.1724 144.134 23.4311 143.849 23.6251C143.564 23.832 143.177 23.9225 142.685 23.9225C141.366 23.9225 140.177 23.4182 139.103 22.4095L137.423 24.8018C138.858 26.069 140.604 26.7026 142.66 26.7026ZM158.074 13.3319C157.233 13.3319 156.457 13.4872 155.733 13.7845C155.008 14.0948 154.388 14.5345 153.871 15.1164H153.819V6.98279H150.354V26.4828H153.819V19.9268C153.819 18.7888 154.078 17.9354 154.621 17.3405C155.151 16.7457 155.888 16.4483 156.844 16.4483C157.698 16.4483 158.332 16.694 158.746 17.1595C159.159 17.638 159.367 18.4527 159.367 19.5905V26.4957H162.845V18.7112C162.845 17.7543 162.728 16.9138 162.495 16.2155C162.263 15.5173 161.927 14.9483 161.5 14.5345C161.061 14.1208 160.568 13.8233 160 13.6294C159.431 13.4354 158.797 13.3319 158.074 13.3319ZM168.043 11.7285C168.625 11.7285 169.129 11.5216 169.556 11.1078C169.97 10.694 170.189 10.2026 170.189 9.60779C170.189 9.03883 169.97 8.53452 169.556 8.12073C169.129 7.70694 168.625 7.50004 168.043 7.50004C167.448 7.50004 166.931 7.70694 166.517 8.12073C166.103 8.53452 165.896 9.03883 165.896 9.60779C165.896 9.99572 165.988 10.3578 166.181 10.6811C166.362 11.0043 166.621 11.2629 166.956 11.444C167.293 11.638 167.655 11.7285 168.043 11.7285ZM166.311 26.4828H169.776V13.5517H166.311V26.4828ZM180.884 13.3319C179.229 13.3319 177.922 13.9009 176.966 15.0388H176.914V13.5517H173.448V31.7199H176.914V25.0345H176.966C177.884 26.1466 179.151 26.7026 180.78 26.7026C181.66 26.7026 182.487 26.5475 183.25 26.2241C184.012 25.9139 184.672 25.4612 185.215 24.8923C185.758 24.3233 186.198 23.6121 186.508 22.7845C186.818 21.9569 186.974 21.0388 186.974 20.0561C186.974 19.2803 186.87 18.5561 186.677 17.8578C186.47 17.1595 186.185 16.5388 185.823 15.9957C185.461 15.4526 185.022 14.9742 184.53 14.5733C184.026 14.1725 183.457 13.8621 182.836 13.6552C182.216 13.4483 181.556 13.3319 180.884 13.3319ZM180.147 23.5992C179.513 23.5992 178.944 23.4569 178.427 23.1724C177.909 22.888 177.509 22.4613 177.211 21.9182C176.914 21.375 176.772 20.7673 176.772 20.069C176.772 19.5647 176.849 19.0863 177.018 18.6336C177.185 18.194 177.418 17.806 177.715 17.4828C178 17.1724 178.362 16.9138 178.775 16.7328C179.189 16.5518 179.655 16.4483 180.147 16.4483C181.09 16.4483 181.879 16.7845 182.513 17.444C183.134 18.1164 183.457 18.9828 183.457 20.069C183.457 21.1164 183.146 21.9699 182.526 22.6164C181.905 23.276 181.116 23.5992 180.147 23.5992Z" fill="black"/>
<path d="M56.8082 26.8858C57.875 26.8858 58.7996 26.5066 59.5582 25.748C60.3168 24.9893 60.7198 24.0885 60.7198 23.0217C60.7198 21.9786 60.3168 21.054 59.5582 20.2954C58.7996 19.5368 57.875 19.1337 56.8082 19.1337C55.6939 19.1337 54.7456 19.513 53.987 20.2717C53.2284 21.0303 52.8491 21.9549 52.8491 23.0217C52.8491 24.1122 53.2284 25.0131 53.987 25.7717C54.7456 26.5303 55.6939 26.8858 56.8082 26.8858Z" fill="#E7332B"/>
</svg>
